<mxfile host="65bd71144e">
    <diagram id="-yKd4-HMBDkQZtuK9eO9" name="Page-1">
        <mxGraphModel dx="1156" dy="533" grid="1" gridSize="10" guides="1" tooltips="1" connect="1" arrows="1" fold="1" page="1" pageScale="1" pageWidth="850" pageHeight="1100" math="0" shadow="0">
            <root>
                <mxCell id="0"/>
                <mxCell id="1" parent="0"/>
                <mxCell id="2" value="" style="rounded=0;whiteSpace=wrap;html=1;fillColor=#f5f5f5;strokeColor=#666666;fontColor=#333333;" parent="1" vertex="1">
                    <mxGeometry x="10" y="181.25" width="833" height="128.75" as="geometry"/>
                </mxCell>
                <mxCell id="6" value="&lt;font style=&quot;font-size: 18px;&quot;&gt;DECSAI&lt;/font&gt;" style="whiteSpace=wrap;html=1;aspect=fixed;fillColor=#f5f5f5;fontColor=#333333;strokeColor=#666666;fontSize=18;" parent="1" vertex="1">
                    <mxGeometry x="40" y="208.44" width="74.37" height="74.37" as="geometry"/>
                </mxCell>
                <mxCell id="7" value="&lt;font style=&quot;font-size: 18px;&quot;&gt;UGR&lt;/font&gt;" style="whiteSpace=wrap;html=1;aspect=fixed;fillColor=#f5f5f5;fontColor=#333333;strokeColor=#666666;fontSize=18;" parent="1" vertex="1">
                    <mxGeometry x="386.5" y="205.63" width="80" height="80" as="geometry"/>
                </mxCell>
                <mxCell id="8" value="&lt;font style=&quot;font-size: 18px;&quot;&gt;Facultad de Ciencias&lt;/font&gt;" style="whiteSpace=wrap;html=1;aspect=fixed;fillColor=#f5f5f5;fontColor=#333333;strokeColor=#666666;" parent="1" vertex="1">
                    <mxGeometry x="730" y="203.44" width="84.37" height="84.37" as="geometry"/>
                </mxCell>
                <mxCell id="9" value="" style="rounded=0;whiteSpace=wrap;html=1;fillColor=#f5f5f5;fontColor=#333333;strokeColor=none;movable=1;resizable=1;rotatable=1;deletable=1;editable=1;connectable=1;" parent="1" vertex="1">
                    <mxGeometry x="10.01" y="310" width="833" height="510" as="geometry"/>
                </mxCell>
                <mxCell id="59" value="&lt;div style=&quot;&quot;&gt;&lt;span style=&quot;color: rgb(0, 0, 0); background-color: initial;&quot;&gt;Statistic Name&lt;/span&gt;&lt;/div&gt;" style="text;html=1;strokeColor=none;fillColor=none;align=left;verticalAlign=middle;whiteSpace=wrap;rounded=0;fontSize=20;fontStyle=1" parent="1" vertex="1">
                    <mxGeometry x="114.37" y="370" width="267.19" height="40" as="geometry"/>
                </mxCell>
                <mxCell id="60" value="Go Back" style="rounded=1;whiteSpace=wrap;html=1;fillColor=#f5f5f5;fontColor=#999999;strokeColor=#999999;" vertex="1" parent="1">
                    <mxGeometry x="40" y="327.5" width="70" height="35" as="geometry"/>
                </mxCell>
                <mxCell id="61" value="Option 1" style="rounded=1;whiteSpace=wrap;html=1;fillColor=#f5f5f5;fontColor=#333333;strokeColor=#808080;" vertex="1" parent="1">
                    <mxGeometry x="114" y="410" width="76" height="30" as="geometry"/>
                </mxCell>
                <mxCell id="62" value="Option 1" style="rounded=1;whiteSpace=wrap;html=1;fillColor=#f5f5f5;fontColor=#3333FF;strokeColor=none;" vertex="1" parent="1">
                    <mxGeometry x="190" y="410" width="76" height="30" as="geometry"/>
                </mxCell>
                <mxCell id="63" value="Option 1" style="rounded=1;whiteSpace=wrap;html=1;fillColor=#f5f5f5;fontColor=#3333FF;strokeColor=none;" vertex="1" parent="1">
                    <mxGeometry x="266" y="410" width="76" height="30" as="geometry"/>
                </mxCell>
                <mxCell id="64" value="" style="endArrow=none;html=1;fontColor=#3333FF;exitX=0;exitY=1;exitDx=0;exitDy=0;entryX=1;entryY=1;entryDx=0;entryDy=0;strokeColor=#999999;" edge="1" parent="1" source="61" target="65">
                    <mxGeometry width="50" height="50" relative="1" as="geometry">
                        <mxPoint x="400" y="500" as="sourcePoint"/>
                        <mxPoint x="450" y="450" as="targetPoint"/>
                    </mxGeometry>
                </mxCell>
                <mxCell id="65" value="" style="rounded=1;whiteSpace=wrap;html=1;fillColor=#f5f5f5;fontColor=#3333FF;strokeColor=none;strokeWidth=0;" vertex="1" parent="1">
                    <mxGeometry x="654" y="410" width="76" height="30" as="geometry"/>
                </mxCell>
                <mxCell id="66" value="Export" style="rounded=1;whiteSpace=wrap;html=1;fillColor=#006600;fontColor=#FFFFFF;strokeColor=none;" vertex="1" parent="1">
                    <mxGeometry x="114" y="450" width="76" height="30" as="geometry"/>
                </mxCell>
                <mxCell id="67" value="Level 1" style="text;html=1;strokeColor=none;fillColor=none;align=left;verticalAlign=middle;whiteSpace=wrap;rounded=0;strokeWidth=0;fontColor=#000000;fontSize=14;fontStyle=1" vertex="1" parent="1">
                    <mxGeometry x="114.37" y="490" width="125.63" height="30" as="geometry"/>
                </mxCell>
                <mxCell id="68" value="Level 2" style="text;html=1;strokeColor=none;fillColor=none;align=left;verticalAlign=middle;whiteSpace=wrap;rounded=0;strokeWidth=0;fontColor=#000000;fontSize=14;fontStyle=1" vertex="1" parent="1">
                    <mxGeometry x="114.37" y="640" width="125.63" height="30" as="geometry"/>
                </mxCell>
                <mxCell id="70" value="" style="rounded=0;whiteSpace=wrap;html=1;strokeColor=#000000;strokeWidth=1;fontColor=#000000;fillColor=none;" vertex="1" parent="1">
                    <mxGeometry x="114.37" y="520" width="615.63" height="100" as="geometry"/>
                </mxCell>
                <mxCell id="71" value="Option 1 Level 1 Graphic" style="text;html=1;strokeColor=none;fillColor=none;align=center;verticalAlign=middle;whiteSpace=wrap;rounded=0;strokeWidth=1;fontColor=#000000;" vertex="1" parent="1">
                    <mxGeometry x="339.87" y="555" width="165" height="30" as="geometry"/>
                </mxCell>
                <mxCell id="72" value="" style="endArrow=none;html=1;strokeColor=#999999;fontColor=#000000;exitX=0;exitY=0;exitDx=0;exitDy=0;entryX=0;entryY=1;entryDx=0;entryDy=0;" edge="1" parent="1" source="71" target="67">
                    <mxGeometry width="50" height="50" relative="1" as="geometry">
                        <mxPoint x="400" y="490" as="sourcePoint"/>
                        <mxPoint x="450" y="440" as="targetPoint"/>
                    </mxGeometry>
                </mxCell>
                <mxCell id="73" value="" style="endArrow=none;html=1;strokeColor=#999999;fontColor=#000000;exitX=1;exitY=0;exitDx=0;exitDy=0;entryX=1;entryY=0;entryDx=0;entryDy=0;" edge="1" parent="1" source="70" target="71">
                    <mxGeometry width="50" height="50" relative="1" as="geometry">
                        <mxPoint x="349.8699999999999" y="565" as="sourcePoint"/>
                        <mxPoint x="124.36999999999989" y="530" as="targetPoint"/>
                    </mxGeometry>
                </mxCell>
                <mxCell id="74" value="" style="endArrow=none;html=1;strokeColor=#999999;fontColor=#000000;exitX=0;exitY=1;exitDx=0;exitDy=0;entryX=0;entryY=1;entryDx=0;entryDy=0;" edge="1" parent="1" source="71" target="70">
                    <mxGeometry width="50" height="50" relative="1" as="geometry">
                        <mxPoint x="359.8699999999999" y="575" as="sourcePoint"/>
                        <mxPoint x="134.3699999999999" y="540" as="targetPoint"/>
                    </mxGeometry>
                </mxCell>
                <mxCell id="75" value="" style="endArrow=none;html=1;strokeColor=#999999;fontColor=#000000;exitX=1;exitY=1;exitDx=0;exitDy=0;entryX=1;entryY=1;entryDx=0;entryDy=0;" edge="1" parent="1" source="70" target="71">
                    <mxGeometry width="50" height="50" relative="1" as="geometry">
                        <mxPoint x="369.8699999999999" y="585" as="sourcePoint"/>
                        <mxPoint x="144.3699999999999" y="550" as="targetPoint"/>
                    </mxGeometry>
                </mxCell>
                <mxCell id="76" value="" style="rounded=0;whiteSpace=wrap;html=1;strokeColor=#000000;strokeWidth=1;fontColor=#000000;fillColor=none;" vertex="1" parent="1">
                    <mxGeometry x="114" y="670" width="615.63" height="100" as="geometry"/>
                </mxCell>
                <mxCell id="77" value="Option 1 Level 2 Graphic" style="text;html=1;strokeColor=none;fillColor=none;align=center;verticalAlign=middle;whiteSpace=wrap;rounded=0;strokeWidth=1;fontColor=#000000;" vertex="1" parent="1">
                    <mxGeometry x="339.5" y="705" width="165" height="30" as="geometry"/>
                </mxCell>
                <mxCell id="78" value="" style="endArrow=none;html=1;strokeColor=#999999;fontColor=#000000;exitX=0;exitY=0;exitDx=0;exitDy=0;entryX=0;entryY=1;entryDx=0;entryDy=0;" edge="1" parent="1" source="77">
                    <mxGeometry width="50" height="50" relative="1" as="geometry">
                        <mxPoint x="399.63" y="640" as="sourcePoint"/>
                        <mxPoint x="113.99999999999989" y="670" as="targetPoint"/>
                    </mxGeometry>
                </mxCell>
                <mxCell id="79" value="" style="endArrow=none;html=1;strokeColor=#999999;fontColor=#000000;exitX=1;exitY=0;exitDx=0;exitDy=0;entryX=1;entryY=0;entryDx=0;entryDy=0;" edge="1" parent="1" source="76" target="77">
                    <mxGeometry width="50" height="50" relative="1" as="geometry">
                        <mxPoint x="349.4999999999999" y="715" as="sourcePoint"/>
                        <mxPoint x="123.99999999999989" y="680" as="targetPoint"/>
                    </mxGeometry>
                </mxCell>
                <mxCell id="80" value="" style="endArrow=none;html=1;strokeColor=#999999;fontColor=#000000;exitX=0;exitY=1;exitDx=0;exitDy=0;entryX=0;entryY=1;entryDx=0;entryDy=0;" edge="1" parent="1" source="77" target="76">
                    <mxGeometry width="50" height="50" relative="1" as="geometry">
                        <mxPoint x="359.4999999999999" y="725" as="sourcePoint"/>
                        <mxPoint x="133.9999999999999" y="690" as="targetPoint"/>
                    </mxGeometry>
                </mxCell>
                <mxCell id="81" value="" style="endArrow=none;html=1;strokeColor=#999999;fontColor=#000000;exitX=1;exitY=1;exitDx=0;exitDy=0;entryX=1;entryY=1;entryDx=0;entryDy=0;" edge="1" parent="1" source="76" target="77">
                    <mxGeometry width="50" height="50" relative="1" as="geometry">
                        <mxPoint x="369.4999999999999" y="735" as="sourcePoint"/>
                        <mxPoint x="143.9999999999999" y="700" as="targetPoint"/>
                    </mxGeometry>
                </mxCell>
            </root>
        </mxGraphModel>
    </diagram>
</mxfile>